# xmcd
#
# Track frame offsets: 
#        150
#        21966
#        41586
#        59880
#        74153
#        87804
#        125493
#        176206
#        189699
#        231474
#        249099
#        281260
#        364350
#
# Disc length: 5134 seconds
#
# Revision: 0
# Processed by: cddbd v1.5.2PL0 Copyright (c) Steve Scherf et al.
# Submitted via: ExactAudioCopy v1.0b3
#
DISCID=ce140c0d
DTITLE=Shuggie Otis - Live in Williamsburg
DYEAR=2014
DGENRE=Blues
TTITLE0=Inspiration Information
TTITLE1=Tryin' to Get Close to You
TTITLE2=Aht Uh Mi Hed
TTITLE3=Island Letter
TTITLE4=Me and My Woman
TTITLE5=Sparkle City - Miss Pretty
TTITLE6=Sweetest Thang
TTITLE7=Picture of Love
TTITLE8=Wings of Love
TTITLE9=Doin' What's Right
TTITLE10=Shuggie's Boogie
TTITLE11=Ice Cold Daydream (Bonus)
TTITLE12=Strawberry Letter 23
EXTD=
EXTT0=
EXTT1=
EXTT2=
EXTT3=
EXTT4=
EXTT5=
EXTT6=
EXTT7=
EXTT8=
EXTT9=
EXTT10=
EXTT11=
EXTT12=
PLAYORDER=
